<svg width="679" height="725" viewBox="0 0 679 725" fill="none" xmlns="http://www.w3.org/2000/svg">
<g opacity="0.3">
<rect opacity="0.2" x="236.444" y="208.388" width="315.56" height="315.56" rx="25" transform="rotate(-30 236.444 208.388)" fill="url(#paint0_linear)"/>
<rect opacity="0.2" x="195.982" y="309.722" width="315.56" height="388.282" rx="25" transform="rotate(-30 195.982 309.722)" fill="url(#paint1_linear)"/>
<rect opacity="0.2" x="180" y="447.781" width="315.56" height="388.282" rx="25" transform="rotate(-30 180 447.781)" fill="url(#paint2_linear)"/>
<rect opacity="0.2" x="157" y="548.78" width="315.56" height="388.282" rx="25" transform="rotate(-30 157 548.78)" fill="url(#paint3_linear)"/>
<rect opacity="0.2" x="284.824" y="112.979" width="193.492" height="388.282" rx="25" transform="rotate(-30 284.824 112.979)" fill="url(#paint4_linear)"/>
</g>
<defs>
<linearGradient id="paint0_linear" x1="394.224" y1="208.388" x2="394.224" y2="523.948" gradientUnits="userSpaceOnUse">
<stop stop-color="#007BB7"/>
<stop offset="1" stop-color="#007BB7" stop-opacity="0.08"/>
</linearGradient>
<linearGradient id="paint1_linear" x1="353.763" y1="309.722" x2="353.763" y2="698.004" gradientUnits="userSpaceOnUse">
<stop stop-color="#007BB7"/>
<stop offset="1" stop-color="#007BB7" stop-opacity="0.08"/>
</linearGradient>
<linearGradient id="paint2_linear" x1="337.78" y1="447.781" x2="337.78" y2="836.063" gradientUnits="userSpaceOnUse">
<stop stop-color="#007BB7"/>
<stop offset="1" stop-color="#007BB7" stop-opacity="0.08"/>
</linearGradient>
<linearGradient id="paint3_linear" x1="314.78" y1="548.78" x2="314.78" y2="937.062" gradientUnits="userSpaceOnUse">
<stop stop-color="#007BB7"/>
<stop offset="1" stop-color="#007BB7" stop-opacity="0.08"/>
</linearGradient>
<linearGradient id="paint4_linear" x1="381.57" y1="112.979" x2="381.57" y2="501.26" gradientUnits="userSpaceOnUse">
<stop stop-color="#007BB7"/>
<stop offset="1" stop-color="#007BB7" stop-opacity="0.08"/>
</linearGradient>
</defs>
</svg>
