<svg width="361" height="245" viewBox="0 0 361 245" fill="none" xmlns="http://www.w3.org/2000/svg">
<path opacity="0.1" d="M32.229 147.422C102.484 107.001 178.165 79.3293 255.037 54.0963C275.419 47.4061 294.516 41.7353 315.915 41.7353" stroke="white" stroke-width="41" stroke-linecap="round" stroke-linejoin="round"/>
<path opacity="0.1" d="M73.02 219.735C73.8929 199.367 82.5278 186.916 95.991 171.938C117.2 148.344 140.177 126.394 164.286 105.807C188.144 85.4337 212.072 66.4642 238.04 49.1519" stroke="white" stroke-width="41" stroke-linecap="round" stroke-linejoin="round"/>
<path opacity="0.1" d="M21 106.257C104.605 88.1616 189.572 84.6248 274.956 83.9228C297.594 83.7367 318.614 84.1632 340.129 91.0299" stroke="white" stroke-width="41" stroke-linecap="round" stroke-linejoin="round"/>
<path opacity="0.1" d="M38.8075 192.048C46.2208 171.85 58.8974 162.104 77.2392 151.365C106.133 134.449 136.278 119.754 167.123 106.792C197.647 93.9644 227.791 82.5707 259.454 73.4979" stroke="white" stroke-width="41" stroke-linecap="round" stroke-linejoin="round"/>
</svg>
