<svg width="240" height="46" viewBox="0 0 240 46" fill="none" xmlns="http://www.w3.org/2000/svg">
<rect opacity="0.1" width="240" height="46" rx="10" fill="black"/>
<g opacity="0.4">
<path d="M29.2899 32C28.4637 31.9961 27.6466 31.8278 26.886 31.505C26.1255 31.1823 25.4367 30.7115 24.8599 30.12C24.2873 29.5774 23.8274 28.9272 23.5065 28.2066C23.1855 27.486 23.0098 26.7092 22.9893 25.9207C22.9689 25.1321 23.1041 24.3472 23.3874 23.611C23.6706 22.8748 24.0962 22.2016 24.6399 21.63L31.9999 14.2C32.3929 13.8077 32.8614 13.4991 33.377 13.2929C33.8926 13.0866 34.4447 12.987 34.9999 13C35.5946 13.0021 36.1829 13.1225 36.7306 13.3543C37.2783 13.586 37.7744 13.9245 38.1899 14.35C39.0169 15.1463 39.4965 16.2365 39.5245 17.3842C39.5526 18.5319 39.1269 19.6443 38.3399 20.48L30.9399 27.91C30.7029 28.1487 30.4208 28.3378 30.1101 28.4666C29.7994 28.5953 29.4662 28.6611 29.1299 28.66C28.7665 28.6605 28.4068 28.5882 28.0719 28.4474C27.737 28.3065 27.4337 28.1 27.1799 27.84C26.6726 27.3489 26.3796 26.6774 26.3647 25.9715C26.3497 25.2656 26.6139 24.5823 27.0999 24.07L33.9299 17.21C34.1243 17.0809 34.3577 17.0239 34.5897 17.0487C34.8217 17.0736 35.0377 17.1788 35.2003 17.3462C35.3629 17.5136 35.4619 17.7325 35.4801 17.9651C35.4983 18.1978 35.4345 18.4294 35.2999 18.62L28.4699 25.48C28.356 25.6172 28.3005 25.7937 28.3155 25.9714C28.3305 26.1491 28.4146 26.3138 28.5499 26.43C28.6906 26.5717 28.8803 26.654 29.0799 26.66C29.1538 26.6611 29.2272 26.6475 29.2959 26.62C29.3645 26.5926 29.4271 26.5518 29.4799 26.5L36.8699 19.07C37.2847 18.6092 37.5015 18.0037 37.4734 17.3843C37.4454 16.7649 37.1747 16.1814 36.7199 15.76C36.2975 15.3215 35.723 15.0615 35.1148 15.0336C34.5065 15.0057 33.9107 15.212 33.4499 15.61L26.0599 23C25.7005 23.386 25.421 23.8392 25.2375 24.3336C25.054 24.828 24.97 25.3538 24.9905 25.8808C25.0109 26.4078 25.1354 26.9255 25.3566 27.4042C25.5779 27.8829 25.8917 28.3131 26.2799 28.67C26.6692 29.0736 27.1349 29.3955 27.65 29.617C28.1651 29.8385 28.7192 29.9551 29.2799 29.96C29.7633 29.964 30.2427 29.8723 30.6906 29.6904C31.1385 29.5085 31.5461 29.2399 31.8899 28.9L39.2799 21.47C39.3725 21.3768 39.4825 21.3027 39.6037 21.252C39.7249 21.2013 39.8549 21.1749 39.9863 21.1745C40.1177 21.174 40.2479 21.1994 40.3695 21.2493C40.4911 21.2991 40.6016 21.3725 40.6949 21.465C40.7881 21.5576 40.8622 21.6677 40.9129 21.7889C40.9636 21.9101 40.99 22.0401 40.9904 22.1715C40.9909 22.3029 40.9655 22.4331 40.9156 22.5547C40.8658 22.6762 40.7925 22.7868 40.6999 22.88L33.3099 30.31C32.7852 30.844 32.1596 31.2684 31.4695 31.5585C30.7794 31.8486 30.0385 31.9987 29.2899 32Z" fill="black"/>
</g>
<path d="M60.2548 16.878V27H61.9908V22.653H66.2958V21.232H61.9908V18.32H66.8768L66.8838 16.878H60.2548ZM70.0726 16.885H68.3856V18.495H70.0726V16.885ZM70.0446 19.762H68.4136V27H70.0446V19.762ZM74.2087 27.105C74.4397 27.105 74.7197 27.049 74.9647 26.965V25.894L74.6007 25.88C74.0267 25.831 73.7887 25.481 73.7887 24.851V16.598H72.1087V25.047C72.1087 26.076 72.3327 27.105 74.2087 27.105ZM77.5816 23.773H82.5656V23.255C82.5656 21.071 81.4176 19.622 79.2966 19.622C77.1336 19.622 75.8806 21.239 75.8806 23.458C75.8806 25.733 77.3086 27.14 79.3946 27.14C80.8506 27.14 82.2296 26.328 82.5376 24.788H80.9836C80.7176 25.537 80.1576 25.873 79.3596 25.873C78.1906 25.873 77.5676 25.005 77.5816 23.773ZM77.5746 22.716C77.5676 21.785 78.1626 20.854 79.2896 20.854C80.4166 20.854 80.9626 21.666 80.9626 22.716H77.5746ZM84.0843 27H91.2243V25.544H85.9813V25.397C85.9813 22.989 91.2103 23.325 91.2103 19.713C91.2103 17.935 89.8523 16.738 87.6893 16.738C85.1833 16.738 83.9163 18.229 83.8883 20.077H85.5333C85.6733 18.866 86.4783 18.18 87.6333 18.18C88.7253 18.18 89.4183 18.81 89.4183 19.72C89.4183 22.17 84.0843 22.009 84.0843 25.621V27ZM92.687 27H94.612V25.04H92.687V27ZM99.0993 27.14C100.632 27.14 101.227 26.209 101.451 25.516L101.64 27H102.893V16.598H101.192V20.784C100.884 20.245 100.114 19.622 98.9453 19.622C97.0203 19.622 96.0613 21.176 96.0613 23.346C96.0613 25.663 97.1113 27.14 99.0993 27.14ZM99.4563 25.887C98.4553 25.887 97.7343 25.152 97.7343 23.332C97.7343 21.645 98.3993 20.889 99.4633 20.889C100.73 20.889 101.164 21.925 101.192 22.66V24.053C101.178 25.11 100.478 25.887 99.4563 25.887ZM107.844 27.14C109.972 27.14 111.253 25.6 111.253 23.416C111.253 21.211 109.986 19.622 107.858 19.622C105.772 19.622 104.428 21.176 104.428 23.43C104.428 25.614 105.709 27.14 107.844 27.14ZM107.865 25.845C106.598 25.845 106.101 24.676 106.101 23.367C106.101 22.044 106.598 20.903 107.858 20.903C109.097 20.903 109.58 22.037 109.58 23.367C109.58 24.676 109.111 25.845 107.865 25.845ZM115.773 19.622C113.736 19.622 112.357 21.183 112.357 23.416C112.357 25.628 113.75 27.14 115.773 27.14C117.376 27.14 118.566 26.146 118.72 24.606H117.306C117.173 25.271 116.655 25.901 115.836 25.901C114.695 25.901 113.96 24.935 113.96 23.388C113.96 21.862 114.674 20.945 115.808 20.945C116.606 20.945 117.11 21.498 117.292 22.247L118.741 22.24C118.587 20.693 117.425 19.622 115.773 19.622ZM126.588 27L123.809 23.234L126.371 19.762H124.565L122.892 22.023L121.219 19.762H119.406L121.961 23.234L119.175 27H120.988L122.885 24.424L124.782 27H126.588Z" fill="black"/>
<path opacity="0.4" d="M137.753 26.5H144.125V25.024H139.703V24.946C139.703 23.104 144.137 23.398 144.137 20.326C144.137 18.76 142.937 17.704 140.987 17.704C138.725 17.704 137.609 19.018 137.597 20.674H139.271C139.409 19.66 140.069 19.156 140.939 19.156C141.773 19.156 142.295 19.648 142.295 20.338C142.295 22.228 137.753 22.114 137.753 25.192V26.5ZM146.065 17.824L145.669 22.228L146.941 22.816C147.055 22.87 147.061 22.87 147.181 22.822C147.769 22.36 148.165 22.258 148.699 22.258C149.683 22.258 150.361 22.894 150.361 23.728C150.361 24.616 149.677 25.222 148.639 25.222C147.607 25.222 146.995 24.598 146.527 23.782L145.159 24.592C145.705 25.774 147.103 26.62 148.819 26.62C150.883 26.62 152.203 25.498 152.203 23.662C152.203 21.85 150.883 20.842 149.149 20.842C148.459 20.842 147.919 20.998 147.277 21.352L147.457 19.258H151.573L151.639 17.824H146.065ZM156.546 17.698C154.47 17.698 153.198 19.3 153.198 22.186C153.198 25.054 154.44 26.602 156.54 26.602C158.634 26.602 159.876 25.054 159.876 22.18C159.876 19.294 158.604 17.698 156.546 17.698ZM156.54 25.198C155.502 25.198 155.022 24.346 155.022 22.186C155.022 19.984 155.514 19.084 156.534 19.084C157.56 19.084 158.04 19.972 158.04 22.186C158.04 24.358 157.584 25.198 156.54 25.198ZM168.592 26.5L165.646 21.172L168.268 17.824H166.258L163.096 21.796V17.824H161.272V26.5H163.096V24.01L164.374 22.456L166.678 26.5H168.592ZM169.815 26.5H173.103C175.479 26.5 176.523 25.75 176.523 24.148C176.523 23.344 176.259 22.438 174.813 22.054C175.935 21.58 176.313 20.962 176.313 20.098C176.313 18.634 175.233 17.824 172.959 17.824H169.815V26.5ZM171.573 21.412V19.18H173.121C173.997 19.18 174.627 19.576 174.627 20.326C174.627 21.088 173.955 21.412 173.235 21.412H171.573ZM171.573 25.144V22.804H173.235C174.099 22.804 174.741 23.206 174.741 23.974C174.741 24.688 174.189 25.144 173.145 25.144H171.573Z" fill="black"/>
<path d="M220 29H206C205.448 29 205 29.4477 205 30C205 30.5523 205.448 31 206 31H220C220.552 31 221 30.5523 221 30C221 29.4477 220.552 29 220 29Z" fill="#007BB7"/>
<path d="M205 28V30C205 30.5523 205.448 31 206 31C206.552 31 207 30.5523 207 30V28C207 27.4477 206.552 27 206 27C205.448 27 205 27.4477 205 28Z" fill="#007BB7"/>
<path d="M219 28V30C219 30.5523 219.448 31 220 31C220.552 31 221 30.5523 221 30V28C221 27.4477 220.552 27 220 27C219.448 27 219 27.4477 219 28Z" fill="#007BB7"/>
<path d="M213 26C212.793 26.0016 212.59 25.9387 212.42 25.82L208.42 23C208.204 22.8471 208.058 22.615 208.013 22.3545C207.968 22.0941 208.028 21.8264 208.18 21.61C208.256 21.5019 208.352 21.4098 208.464 21.3391C208.575 21.2684 208.7 21.2206 208.83 21.1982C208.96 21.1759 209.093 21.1796 209.222 21.2091C209.351 21.2386 209.472 21.2933 209.58 21.37L213 23.76L216.4 21.2C216.612 21.0409 216.879 20.9725 217.141 21.0101C217.404 21.0476 217.641 21.1878 217.8 21.4C217.959 21.6122 218.027 21.8789 217.99 22.1414C217.952 22.404 217.812 22.6409 217.6 22.8L213.6 25.8C213.427 25.9298 213.216 26 213 26Z" fill="#007BB7"/>
<path d="M213 24C212.735 24 212.48 23.8946 212.293 23.7071C212.105 23.5196 212 23.2652 212 23V15C212 14.7348 212.105 14.4804 212.293 14.2929C212.48 14.1054 212.735 14 213 14C213.265 14 213.52 14.1054 213.707 14.2929C213.895 14.4804 214 14.7348 214 15V23C214 23.2652 213.895 23.5196 213.707 23.7071C213.52 23.8946 213.265 24 213 24Z" fill="#007BB7"/>
</svg>
