<svg width="301" height="215" viewBox="0 0 301 215" fill="none" xmlns="http://www.w3.org/2000/svg">
<path opacity="0.1" d="M9.85205 129.347C71.4934 93.8818 137.894 69.6026 205.341 47.4635C223.224 41.5935 239.98 36.618 258.755 36.618" stroke="#FF9393" stroke-width="41" stroke-linecap="round" stroke-linejoin="round"/>
<path opacity="0.1" d="M45.6416 192.793C46.4075 174.922 53.9837 163.998 65.7961 150.857C84.4043 130.155 104.564 110.897 125.717 92.8337C146.65 74.9586 167.644 58.315 190.428 43.1254" stroke="#FF9393" stroke-width="41" stroke-linecap="round" stroke-linejoin="round"/>
<path opacity="0.1" d="M-8.45684e-05 93.2285C73.3536 77.3521 147.903 74.2489 222.818 73.633C242.681 73.4697 261.123 73.8439 280 79.8686" stroke="#FF9393" stroke-width="41" stroke-linecap="round" stroke-linejoin="round"/>
<path opacity="0.1" d="M15.6243 168.501C22.1287 150.78 33.251 142.228 49.3439 132.806C74.6952 117.964 101.144 105.071 128.207 93.6979C154.988 82.4433 181.436 72.4466 209.217 64.4862" stroke="#FF9393" stroke-width="41" stroke-linecap="round" stroke-linejoin="round"/>
</svg>
