<svg width="153" height="46" viewBox="0 0 153 46" fill="none" xmlns="http://www.w3.org/2000/svg">
<g clip-path="url(#clip0)">
<path d="M58.6905 33.9756C57.612 33.9857 56.5519 33.6951 55.6283 33.1362C54.734 32.6093 53.9866 31.8644 53.4555 30.9706V33.7041H51.809V13.9363H53.6437V22.5471C54.2357 21.6294 55.0068 20.8415 55.9106 20.231C56.8241 19.6333 57.8956 19.3249 58.986 19.3459C59.9096 19.3305 60.8226 19.5443 61.6439 19.9684C62.4186 20.3774 63.0992 20.9447 63.6418 21.634C64.1965 22.3416 64.6252 23.1402 64.909 23.9943C65.2031 24.8622 65.3521 25.7728 65.3501 26.6895C65.3573 27.6514 65.1848 28.6061 64.8414 29.5042C64.5202 30.3564 64.0447 31.1416 63.4389 31.8203C62.8438 32.4796 62.1236 33.0132 61.3205 33.3899C60.4985 33.7799 59.5998 33.9801 58.6905 33.9756ZM58.2583 32.3528C58.9917 32.362 59.717 32.1994 60.3767 31.8778C61.0051 31.5698 61.5647 31.1372 62.0218 30.6062C62.4836 30.0687 62.8487 29.4547 63.1008 28.7917C63.3609 28.1231 63.494 27.4116 63.4933 26.6939C63.4951 25.9652 63.3718 25.2416 63.1287 24.5549C62.8965 23.8891 62.5481 23.2702 62.0997 22.7271C61.6625 22.1968 61.1203 21.7632 60.5076 21.454C59.8761 21.1357 59.1781 20.9734 58.4715 20.9804C57.9364 20.9759 57.4053 21.0725 56.9058 21.2651C56.421 21.4542 55.9667 21.7142 55.5578 22.0367C55.1422 22.3622 54.7702 22.74 54.4508 23.1608C54.1323 23.5759 53.8606 24.0251 53.6408 24.5003V28.8846C53.7191 29.3828 53.9213 29.8532 54.2288 30.2521C54.5442 30.6778 54.9271 31.0485 55.3622 31.3497C55.8035 31.6596 56.2847 31.9077 56.7926 32.0873C57.2628 32.258 57.7584 32.3473 58.2583 32.3513V32.3528Z" fill="white"/>
<path d="M68.4579 16.6463V13.9393H70.2925V16.6463H68.4579ZM68.4579 33.7041V19.5982H70.2925V33.7041H68.4579Z" fill="white"/>
<path d="M73.1519 32.4546L82.6487 20.9745H73.368V19.5938H84.6465V20.8388L75.1747 32.3189H84.6186V33.6997H73.1519V32.4546Z" fill="white"/>
<path d="M99.4312 33.7041H97.5965V25.825C97.5965 24.1462 97.3515 22.9282 96.8615 22.1709C96.3715 21.4137 95.6114 21.0345 94.5814 21.0336C94.0292 21.035 93.4816 21.1349 92.9643 21.3286C92.4242 21.527 91.919 21.8103 91.4677 22.168C91.001 22.5374 90.5874 22.9698 90.2387 23.4529C89.8849 23.9391 89.62 24.4846 89.4566 25.0638V33.7012H87.6176V19.5982H89.2905V22.7935C89.8754 21.7551 90.7286 20.8943 91.7603 20.3018C92.8172 19.6736 94.0248 19.3462 95.2532 19.3548C95.9353 19.3343 96.6118 19.4828 97.2231 19.787C97.7556 20.0697 98.2028 20.4905 98.5183 21.0055C98.8666 21.5965 99.1042 22.2465 99.2195 22.9233C99.37 23.7535 99.4424 24.5962 99.4356 25.44L99.4312 33.7041Z" fill="white"/>
<path d="M107.742 33.9756C106.213 33.9756 105.075 33.4656 104.328 32.4458C103.581 31.4259 103.208 29.9045 103.209 27.8815V19.5982H105.044V27.5643C105.044 30.7596 106.132 32.3573 108.308 32.3573C108.85 32.3572 109.388 32.2654 109.9 32.0858C110.421 31.9057 110.909 31.6405 111.343 31.301C111.792 30.9502 112.192 30.5403 112.531 30.0825C112.891 29.5948 113.178 29.0565 113.381 28.4848V19.6041H115.216V31.3276C115.216 31.8341 115.432 32.0868 115.864 32.0858V33.7086C115.69 33.741 115.514 33.7592 115.338 33.7631H115.054C114.857 33.7612 114.662 33.7195 114.481 33.6404C114.3 33.5613 114.137 33.4465 114.001 33.3029C113.721 32.9825 113.576 32.5649 113.597 32.1389V30.5162C113.016 31.5848 112.151 32.4704 111.098 33.0742C110.079 33.6678 108.92 33.9788 107.742 33.9756Z" fill="white"/>
<path d="M123.58 33.7041L117.86 19.5982H119.748L124.579 31.9988L129.43 19.5982H131.212L125.492 33.7041H123.58Z" fill="white"/>
<path d="M139.256 33.9756C138.29 33.9876 137.332 33.7888 136.45 33.3929C135.62 33.0157 134.873 32.4778 134.252 31.81C133.625 31.1342 133.135 30.3432 132.808 29.4806C132.465 28.5916 132.291 27.6458 132.295 26.6925C132.29 25.7286 132.468 24.7726 132.821 23.8763C133.157 23.0151 133.652 22.225 134.278 21.5469C134.904 20.8767 135.652 20.3346 136.483 19.9508C137.355 19.5499 138.304 19.3484 139.262 19.3607C140.225 19.3497 141.178 19.5512 142.055 19.9508C142.887 20.334 143.636 20.8761 144.26 21.5469C144.886 22.2254 145.381 23.0154 145.717 23.8763C146.07 24.7726 146.249 25.7286 146.243 26.6925C146.247 27.6458 146.073 28.5914 145.73 29.4806C145.402 30.3427 144.912 31.1334 144.287 31.81C143.664 32.4794 142.914 33.0175 142.082 33.3929C141.192 33.7888 140.229 33.9875 139.256 33.9756ZM134.156 26.719C134.148 27.476 134.286 28.2274 134.562 28.9318C134.818 29.5874 135.188 30.1923 135.654 30.7183C136.105 31.2272 136.656 31.6375 137.271 31.9236C137.893 32.2128 138.57 32.3609 139.255 32.3573C139.941 32.3621 140.619 32.2108 141.238 31.9147C141.857 31.6152 142.413 31.1973 142.873 30.6844C143.348 30.1573 143.723 29.5467 143.978 28.8831C144.517 27.4575 144.517 25.8832 143.978 24.4575C143.725 23.7897 143.35 23.175 142.873 22.6445C142.412 22.1359 141.857 21.7221 141.239 21.426C140.62 21.1299 139.942 20.9786 139.256 20.9834C138.574 20.9776 137.9 21.129 137.286 21.426C136.672 21.7263 136.122 22.1448 135.669 22.6578C135.192 23.1955 134.817 23.8159 134.562 24.4885C134.289 25.1999 134.151 25.9566 134.156 26.719Z" fill="white"/>
<path d="M22.9202 46C35.5787 46 45.8405 35.7025 45.8405 23C45.8405 10.2975 35.5787 0 22.9202 0C10.2617 0 0 10.2975 0 23C0 35.7025 10.2617 46 22.9202 46Z" fill="white"/>
<path d="M14.0541 16.1904C13.5209 17.4109 13.0309 18.3344 12.584 18.9609C12.1371 19.5874 11.7568 19.9144 11.4432 19.9419C11.013 19.9802 10.7537 19.5038 10.6655 18.5124C10.5756 17.6321 10.6372 16.7429 10.8478 15.8836C11.043 15.1175 11.372 14.3923 11.8196 13.7416C12.2663 13.0972 12.8162 12.5314 13.447 12.0672C14.1105 11.578 14.827 11.1658 15.583 10.8384C16.3929 10.4882 17.2328 10.2127 18.0925 10.0152C18.9997 9.80262 19.9208 9.65473 20.8489 9.57265C21.9639 9.47391 23.0845 9.45566 24.2022 9.51806C25.3011 9.57776 26.3948 9.71082 27.4761 9.91637C28.4863 10.1066 29.4798 10.3774 30.4471 10.7263C31.3029 11.0302 32.1236 11.4259 32.8948 11.9064C33.5448 12.3029 34.1205 12.8107 34.5957 13.4067C35.009 13.917 35.2645 14.5375 35.3308 15.1917C35.3946 15.9672 35.2944 16.7474 35.0367 17.4812C34.7468 18.2893 34.2778 19.0207 33.6652 19.6203C32.9242 20.3414 32.0577 20.92 31.1087 21.3271C30.0522 21.808 28.7614 22.1311 27.2364 22.2963C28.1049 22.2004 28.9837 22.2852 29.8179 22.5456C30.5346 22.7752 31.1945 23.1548 31.754 23.6594C32.3029 24.171 32.7361 24.7948 33.0242 25.4887C33.3312 26.2021 33.5232 26.96 33.5931 27.734C33.6457 28.3606 33.6165 28.9914 33.5064 29.6104C33.3937 30.2597 33.1959 30.8911 32.9183 31.4884C32.6264 32.1138 32.2553 32.6989 31.8143 33.2291C31.3406 33.7955 30.7898 34.2921 30.1781 34.7043C29.4982 35.1614 28.7625 35.5288 27.9891 35.7974C27.1013 36.103 26.1787 36.2953 25.243 36.3698C24.5728 36.4281 23.9 36.4508 23.2275 36.4377C22.516 36.4229 21.7946 36.3816 21.0635 36.3138C20.3324 36.2459 19.6115 36.1525 18.901 36.0335C18.1905 35.9135 17.5181 35.7768 16.884 35.6234C16.6229 35.5907 16.3687 35.516 16.1313 35.4021C15.9089 35.2939 15.7839 35.0771 15.7565 34.7515C15.6104 33.1003 15.5026 31.4067 15.4331 29.6709C15.3639 27.9436 15.3815 26.214 15.486 24.4885C15.5629 22.9686 15.7764 21.4587 16.124 19.9773C16.4611 18.6447 16.9696 17.3618 17.6367 16.1609C18.2885 15.6171 18.8981 15.322 19.4655 15.2758C20.18 15.2119 20.8126 15.563 21.3634 16.3291C20.9572 17.0097 20.6316 17.7354 20.3931 18.4918C20.1683 19.1732 19.9851 19.8679 19.8448 20.5718C19.7149 21.3035 19.6294 22.0425 19.589 22.7846C19.5331 23.6629 19.5028 24.5185 19.4979 25.3515C19.489 25.8236 19.493 26.3473 19.5096 26.9226C19.5258 27.4979 19.5434 28.0614 19.5625 28.6102C19.5817 29.159 19.6081 29.7078 19.6419 30.2521C19.6757 30.7965 19.7125 31.3158 19.7566 31.8144C19.7566 31.894 19.7742 32.0047 19.786 32.1448C19.7996 32.2912 19.8246 32.4362 19.861 32.5785C19.896 32.7166 19.9402 32.8521 19.9933 32.9842C20.0317 33.0901 20.1015 33.1818 20.1932 33.2468C20.8419 33.4002 21.4993 33.514 22.1617 33.5876C22.8499 33.6669 23.5444 33.6763 24.2345 33.6156C25.0518 33.5446 25.8566 33.3686 26.6293 33.0919C27.3626 32.8342 28.0405 32.4393 28.6271 31.928C29.1959 31.4246 29.6424 30.7974 29.9326 30.0943C30.2364 29.3646 30.3413 28.4578 30.2472 27.374C30.2203 26.8686 30.0649 26.3785 29.7959 25.9504C29.5522 25.5893 29.235 25.2842 28.8653 25.055C28.4801 24.8182 28.0605 24.643 27.6216 24.5357C27.1629 24.4187 26.6959 24.3203 26.2206 24.2407L24.8225 23.9943C24.4011 23.9245 23.9888 23.8072 23.5935 23.6447C23.2527 23.5065 22.9447 23.2979 22.6894 23.0325C22.4373 22.7459 22.29 22.3817 22.2719 21.9998C22.2538 21.8199 22.2499 21.6389 22.2602 21.4584C22.2676 21.316 22.3189 21.1793 22.4072 21.0675C22.512 20.9477 22.6471 20.8585 22.7982 20.8093C23.0363 20.7318 23.2834 20.6852 23.5333 20.6706C23.9537 20.6323 24.3389 20.6161 24.6902 20.619C25.0662 20.6223 25.442 20.6061 25.8163 20.5703C26.6788 20.505 27.5269 20.3121 28.3331 19.998C29.0093 19.7357 29.6361 19.3601 30.1869 18.8871C30.6615 18.4769 31.0409 17.9673 31.2983 17.3942C31.542 16.8428 31.6387 16.2374 31.5791 15.6372C31.5464 15.2487 31.3949 14.8798 31.1454 14.581C30.86 14.2464 30.5099 13.9734 30.1163 13.7785C29.6418 13.5353 29.1412 13.3472 28.6242 13.2179C28.0215 13.0618 27.4083 12.9494 26.7895 12.8815C26.1061 12.805 25.419 12.7665 24.7314 12.7665C24.011 12.7665 23.2843 12.7989 22.5512 12.8638C21.6288 12.9332 20.711 13.0549 19.8022 13.2282C18.9602 13.3922 18.1324 13.6226 17.3265 13.9171C16.6225 14.1703 15.9517 14.5082 15.3287 14.9232C14.8184 15.2493 14.3837 15.6814 14.0541 16.1904Z" fill="#007BB7"/>
<path d="M150.183 21.0527H149.362V23.1977H148.966V21.0527H148.137V20.7061H150.186L150.183 21.0527Z" fill="white"/>
<path d="M152.605 23.1977V21.4038L151.87 22.7625H151.652L150.917 21.4038V23.1977H150.524V20.7061H150.945L151.767 22.2285L152.588 20.7061H153.009V23.1977H152.605Z" fill="white"/>
</g>
<defs>
<clipPath id="clip0">
<rect width="153" height="46" fill="white"/>
</clipPath>
</defs>
</svg>
