<svg width="562" height="408" viewBox="0 0 562 408" fill="none" xmlns="http://www.w3.org/2000/svg">
<g filter="url(#filter0_d)">
<rect x="15" y="9" width="164" height="149" rx="10" fill="white"/>
</g>
<path opacity="0.3" d="M114.5 61.5H119.5C120.881 61.5 122 62.6193 122 64C122 65.3807 120.881 66.5 119.5 66.5H114.5C113.119 66.5 112 65.3807 112 64C112 62.6193 113.119 61.5 114.5 61.5ZM74.5 61.5H79.5C80.8807 61.5 82 62.6193 82 64C82 65.3807 80.8807 66.5 79.5 66.5H74.5C73.1193 66.5 72 65.3807 72 64C72 62.6193 73.1193 61.5 74.5 61.5ZM97 39C98.3807 39 99.5 40.1193 99.5 41.5V46.5C99.5 47.8807 98.3807 49 97 49C95.6193 49 94.5 47.8807 94.5 46.5V41.5C94.5 40.1193 95.6193 39 97 39ZM97 79C98.3807 79 99.5 80.1193 99.5 81.5V86.5C99.5 87.8807 98.3807 89 97 89C95.6193 89 94.5 87.8807 94.5 86.5V81.5C94.5 80.1193 95.6193 79 97 79Z" fill="#FF9393"/>
<path opacity="0.3" d="M97 69C99.7614 69 102 66.7614 102 64C102 61.2386 99.7614 59 97 59C94.2386 59 92 61.2386 92 64C92 66.7614 94.2386 69 97 69Z" fill="#FF9393"/>
<path d="M97 76.5C103.904 76.5 109.5 70.9036 109.5 64C109.5 57.0964 103.904 51.5 97 51.5C90.0964 51.5 84.5 57.0964 84.5 64C84.5 70.9036 90.0964 76.5 97 76.5ZM97 81.5C87.335 81.5 79.5 73.665 79.5 64C79.5 54.335 87.335 46.5 97 46.5C106.665 46.5 114.5 54.335 114.5 64C114.5 73.665 106.665 81.5 97 81.5Z" fill="#FF9393"/>
<path d="M66.583 130.16C69.839 130.16 71.887 127.912 71.887 124.24C71.887 120.536 69.807 118.272 66.583 118.272C63.343 118.272 61.247 120.544 61.247 124.248C61.247 127.928 63.295 130.16 66.583 130.16ZM66.591 128.24C64.903 128.24 63.799 127.096 63.799 124.272C63.799 121.392 64.903 120.192 66.583 120.192C68.263 120.192 69.343 121.384 69.343 124.272C69.343 127.096 68.279 128.24 66.591 128.24ZM73.5789 130H75.9149V124.648C75.9149 123.888 76.6829 123.488 77.4669 123.488C78.2269 123.488 78.8349 123.952 78.8349 124.768V130H81.1789V124.488C81.1789 122.76 79.7949 121.656 78.2829 121.656C76.9709 121.656 76.3709 122.184 75.8829 122.792V121.728H73.5789V130ZM85.0279 126.4H90.5639V125.768C90.5639 123.288 89.2359 121.568 86.7239 121.568C84.1879 121.568 82.7159 123.472 82.7159 125.96C82.7159 128.528 84.3959 130.16 86.8359 130.16C88.5639 130.16 90.2359 129.16 90.5559 127.376H88.4519C88.1719 128.16 87.5879 128.472 86.7799 128.472C85.6679 128.472 85.0199 127.664 85.0279 126.4ZM85.0199 125.008C85.0199 124.096 85.6439 123.2 86.7159 123.2C87.8359 123.2 88.3879 124.008 88.3879 125.008H85.0199ZM100.151 130.16C102.999 130.16 104.927 128.72 104.927 126.856C104.927 125.656 104.575 123.856 101.695 123.304L99.6794 122.896C98.4234 122.624 98.0554 122.232 98.0554 121.56C98.0554 120.72 98.8634 120.144 100.135 120.144C101.367 120.144 102.263 120.592 102.431 121.792L104.799 121.752C104.607 119.944 102.863 118.288 100.095 118.288C97.5354 118.288 95.5354 119.656 95.5594 121.832C95.5754 123.608 96.7034 124.64 98.4794 124.968L100.527 125.384C101.663 125.608 102.519 126 102.519 126.872C102.519 127.856 101.439 128.328 100.143 128.328C98.8634 128.328 97.8714 127.752 97.6394 126.696L95.2074 126.744C95.4634 129.072 97.8234 130.16 100.151 130.16ZM111.479 123.352V121.72H109.639V119.232H107.975L107.391 121.728H105.967V123.352H107.311V127.856C107.311 129.184 107.871 130.088 110.055 130.088C110.863 130.088 111.287 129.984 111.503 129.888V128.448H110.391C109.879 128.448 109.647 128.368 109.647 127.76L109.639 123.352H111.479ZM116.591 130.16C119.071 130.16 120.591 128.392 120.591 125.912C120.591 123.392 119.095 121.568 116.607 121.568C114.199 121.568 112.591 123.328 112.591 125.92C112.591 128.408 114.111 130.16 116.591 130.16ZM116.607 128.424C115.311 128.424 114.879 127.12 114.879 125.832C114.879 124.528 115.311 123.288 116.607 123.288C117.879 123.288 118.311 124.52 118.311 125.832C118.311 127.128 117.895 128.424 116.607 128.424ZM122.173 132.576H124.509V128.8C125.085 129.872 125.813 130.16 126.637 130.16C128.565 130.16 130.237 128.8 130.237 125.8C130.237 122.92 128.741 121.568 126.925 121.568C125.837 121.568 125.021 122.096 124.509 122.776V121.728H122.173V132.576ZM126.181 128.48C125.421 128.48 124.749 127.88 124.509 127.064V124.936C124.509 124.152 125.269 123.264 126.221 123.264C127.181 123.264 128.053 124.12 128.053 125.816C128.053 127.584 127.213 128.48 126.181 128.48Z" fill="#007BB7"/>
<g filter="url(#filter1_d)">
<rect x="199" y="59" width="164" height="149" rx="10" fill="white"/>
</g>
<path opacity="0.3" d="M298.5 111.5H303.5C304.881 111.5 306 112.619 306 114C306 115.381 304.881 116.5 303.5 116.5H298.5C297.119 116.5 296 115.381 296 114C296 112.619 297.119 111.5 298.5 111.5ZM258.5 111.5H263.5C264.881 111.5 266 112.619 266 114C266 115.381 264.881 116.5 263.5 116.5H258.5C257.119 116.5 256 115.381 256 114C256 112.619 257.119 111.5 258.5 111.5ZM281 89C282.381 89 283.5 90.1193 283.5 91.5V96.5C283.5 97.8807 282.381 99 281 99C279.619 99 278.5 97.8807 278.5 96.5V91.5C278.5 90.1193 279.619 89 281 89ZM281 129C282.381 129 283.5 130.119 283.5 131.5V136.5C283.5 137.881 282.381 139 281 139C279.619 139 278.5 137.881 278.5 136.5V131.5C278.5 130.119 279.619 129 281 129Z" fill="#FF9393"/>
<path opacity="0.3" d="M281 119C283.761 119 286 116.761 286 114C286 111.239 283.761 109 281 109C278.239 109 276 111.239 276 114C276 116.761 278.239 119 281 119Z" fill="#FF9393"/>
<path d="M281 126.5C287.904 126.5 293.5 120.904 293.5 114C293.5 107.096 287.904 101.5 281 101.5C274.096 101.5 268.5 107.096 268.5 114C268.5 120.904 274.096 126.5 281 126.5ZM281 131.5C271.335 131.5 263.5 123.665 263.5 114C263.5 104.335 271.335 96.5 281 96.5C290.665 96.5 298.5 104.335 298.5 114C298.5 123.665 290.665 131.5 281 131.5Z" fill="#FF9393"/>
<path d="M233.78 180H242.924V178.024H237.028L242.988 169.52V168.432H234.18V170.384H239.66L233.78 178.864V180ZM246.364 176.4H251.9V175.768C251.9 173.288 250.572 171.568 248.06 171.568C245.524 171.568 244.052 173.472 244.052 175.96C244.052 178.528 245.732 180.16 248.172 180.16C249.9 180.16 251.572 179.16 251.892 177.376H249.788C249.508 178.16 248.924 178.472 248.116 178.472C247.004 178.472 246.356 177.664 246.364 176.4ZM246.356 175.008C246.356 174.096 246.98 173.2 248.052 173.2C249.172 173.2 249.724 174.008 249.724 175.008H246.356ZM253.555 180H255.891V175.472C255.891 174.44 256.539 173.624 258.595 173.792C258.683 173.8 258.691 173.8 258.739 173.816V171.584C258.723 171.576 258.659 171.568 258.587 171.568C257.107 171.568 256.203 172.528 255.803 173.688V171.728H253.555V180ZM263.661 180.16C266.141 180.16 267.661 178.392 267.661 175.912C267.661 173.392 266.165 171.568 263.677 171.568C261.269 171.568 259.661 173.328 259.661 175.92C259.661 178.408 261.181 180.16 263.661 180.16ZM263.677 178.424C262.381 178.424 261.949 177.12 261.949 175.832C261.949 174.528 262.381 173.288 263.677 173.288C264.949 173.288 265.381 174.52 265.381 175.832C265.381 177.128 264.965 178.424 263.677 178.424ZM277.471 168.272C274.247 168.272 272.255 170.52 272.255 174.12C272.255 177.72 274.279 180.16 277.511 180.16C280.647 180.16 281.919 178.336 282.191 176.168L279.751 176.112C279.511 177.328 278.679 178.24 277.447 178.24C275.799 178.24 274.823 176.976 274.823 174.16C274.823 171.32 275.807 170.192 277.407 170.192C278.767 170.192 279.551 171 279.767 172.208L282.215 172.168C281.975 169.936 280.103 168.272 277.471 168.272ZM287.396 180.16C289.876 180.16 291.396 178.392 291.396 175.912C291.396 173.392 289.9 171.568 287.412 171.568C285.004 171.568 283.396 173.328 283.396 175.92C283.396 178.408 284.916 180.16 287.396 180.16ZM287.412 178.424C286.116 178.424 285.684 177.12 285.684 175.832C285.684 174.528 286.116 173.288 287.412 173.288C288.684 173.288 289.116 174.52 289.116 175.832C289.116 177.128 288.7 178.424 287.412 178.424ZM295.987 180.16C297.603 180.16 298.315 179.216 298.603 178.304L298.875 180H300.571V168.112H298.227V172.824C297.827 172.128 296.923 171.568 295.755 171.568C293.611 171.568 292.483 173.296 292.483 175.816C292.483 178.464 293.707 180.16 295.987 180.16ZM296.507 178.48C295.499 178.48 294.763 177.736 294.763 175.792C294.763 173.96 295.475 173.264 296.499 173.264C297.699 173.264 298.211 174.192 298.227 175.184V176.48C298.219 177.696 297.515 178.48 296.507 178.48ZM304.954 168.44H302.682V170.544H304.954V168.44ZM304.938 171.728H302.706V180H304.938V171.728ZM307.18 180H309.516V174.648C309.516 173.888 310.284 173.488 311.068 173.488C311.828 173.488 312.436 173.952 312.436 174.768V180H314.78V174.488C314.78 172.76 313.396 171.656 311.884 171.656C310.572 171.656 309.972 172.184 309.484 172.792V171.728H307.18V180ZM320.613 182.736C323.501 182.736 325.021 181.648 325.021 180.064C325.021 178.792 324.101 177.84 322.005 177.696C321.277 177.648 320.637 177.616 320.293 177.592C319.317 177.536 318.845 177.496 318.845 177.232C318.845 177.064 319.037 176.92 319.669 176.888C319.869 176.912 320.285 176.92 320.477 176.92C322.965 176.92 324.229 175.584 324.229 174.184C324.229 173.992 324.141 173.576 324.045 173.312L325.469 173.08L325.485 171.272C324.789 171.56 323.549 172.056 323.053 172.248C322.437 171.864 321.781 171.6 320.645 171.6C318.453 171.6 316.725 172.536 316.725 174.192C316.725 175.128 317.245 176.04 318.397 176.576C317.253 176.776 316.701 177.328 316.701 177.912C316.701 178.696 317.461 178.992 317.717 179.144C317.557 179.232 316.109 179.576 316.109 180.704C316.109 181.88 317.621 182.736 320.613 182.736ZM320.549 175.616C319.629 175.616 319.069 175.088 319.069 174.264C319.069 173.432 319.637 172.832 320.549 172.832C321.429 172.832 322.021 173.4 322.021 174.264C322.021 175.088 321.485 175.616 320.549 175.616ZM320.989 181.432C319.261 181.432 318.397 181.152 318.397 180.432C318.397 179.92 318.901 179.448 319.645 179.488L321.541 179.616C322.389 179.672 322.797 179.992 322.797 180.504C322.797 181.104 322.229 181.432 320.989 181.432Z" fill="#007BB7"/>
<g filter="url(#filter2_d)">
<rect x="383" y="99" width="164" height="168" rx="10" fill="white"/>
</g>
<path opacity="0.3" d="M482.5 151.5H487.5C488.881 151.5 490 152.619 490 154C490 155.381 488.881 156.5 487.5 156.5H482.5C481.119 156.5 480 155.381 480 154C480 152.619 481.119 151.5 482.5 151.5ZM442.5 151.5H447.5C448.881 151.5 450 152.619 450 154C450 155.381 448.881 156.5 447.5 156.5H442.5C441.119 156.5 440 155.381 440 154C440 152.619 441.119 151.5 442.5 151.5ZM465 129C466.381 129 467.5 130.119 467.5 131.5V136.5C467.5 137.881 466.381 139 465 139C463.619 139 462.5 137.881 462.5 136.5V131.5C462.5 130.119 463.619 129 465 129ZM465 169C466.381 169 467.5 170.119 467.5 171.5V176.5C467.5 177.881 466.381 179 465 179C463.619 179 462.5 177.881 462.5 176.5V171.5C462.5 170.119 463.619 169 465 169Z" fill="#FF9393"/>
<path opacity="0.3" d="M465 159C467.761 159 470 156.761 470 154C470 151.239 467.761 149 465 149C462.239 149 460 151.239 460 154C460 156.761 462.239 159 465 159Z" fill="#FF9393"/>
<path d="M465 166.5C471.904 166.5 477.5 160.904 477.5 154C477.5 147.096 471.904 141.5 465 141.5C458.096 141.5 452.5 147.096 452.5 154C452.5 160.904 458.096 166.5 465 166.5ZM465 171.5C455.335 171.5 447.5 163.665 447.5 154C447.5 144.335 455.335 136.5 465 136.5C474.665 136.5 482.5 144.335 482.5 154C482.5 163.665 474.665 171.5 465 171.5Z" fill="#FF9393"/>
<path d="M426.853 220.16C428.717 220.16 429.653 219.28 430.245 218.488V220H431.845V213.96L426.997 213.936V215.552H429.397L429.293 216.256C429.189 217.08 428.397 218.104 427.021 218.104C425.541 218.104 424.189 217.184 424.189 214.16C424.189 211.424 425.357 210.248 426.933 210.248C428.197 210.248 429.021 211.096 429.237 212.2L431.701 212.16C431.629 210.144 429.725 208.272 426.989 208.272C423.813 208.272 421.645 210.584 421.645 214.256C421.645 217.816 423.677 220.16 426.853 220.16ZM433.899 220H436.235V215.472C436.235 214.44 436.883 213.624 438.939 213.792C439.027 213.8 439.035 213.8 439.083 213.816V211.584C439.067 211.576 439.003 211.568 438.931 211.568C437.451 211.568 436.547 212.528 436.147 213.688V211.728H433.899V220ZM442.901 220.16C444.053 220.16 444.893 219.8 445.461 218.6L445.653 220H447.605V214.184C447.605 212.616 446.637 211.568 444.109 211.568C442.045 211.568 440.541 212.48 440.453 214.192H442.397C442.629 213.448 443.325 213.152 443.997 213.144C444.869 213.136 445.365 213.544 445.365 214.32V214.816L444.333 214.832C441.405 214.864 440.101 215.824 440.101 217.632C440.101 219.248 441.309 220.16 442.901 220.16ZM443.677 218.624C442.917 218.624 442.317 218.168 442.317 217.4C442.317 216.392 443.357 216.048 444.525 216.032L445.365 216.016V217.24C445.357 217.952 444.525 218.624 443.677 218.624ZM449.665 222.576H452.001V218.8C452.577 219.872 453.305 220.16 454.129 220.16C456.057 220.16 457.729 218.8 457.729 215.8C457.729 212.92 456.233 211.568 454.417 211.568C453.329 211.568 452.513 212.096 452.001 212.776V211.728H449.665V222.576ZM453.673 218.48C452.913 218.48 452.241 217.88 452.001 217.064V214.936C452.001 214.152 452.761 213.264 453.713 213.264C454.673 213.264 455.545 214.12 455.545 215.816C455.545 217.584 454.705 218.48 453.673 218.48ZM459.368 220H461.704V214.672C461.704 213.912 462.456 213.488 463.232 213.488C463.992 213.488 464.616 213.904 464.616 214.608V220H466.952V214.28C466.952 212.72 465.648 211.68 464.064 211.68C462.752 211.68 462.088 212.24 461.688 212.816V208.112H459.368V220ZM471.329 208.44H469.057V210.544H471.329V208.44ZM471.313 211.728H469.081V220H471.313V211.728ZM477.059 211.568C474.707 211.568 473.067 213.352 473.067 215.904C473.067 218.432 474.731 220.16 477.059 220.16C479.035 220.16 480.387 218.872 480.507 217.112H478.611C478.491 217.728 478.027 218.504 477.131 218.504C476.003 218.504 475.243 217.504 475.243 215.872C475.243 214.272 475.963 213.344 477.099 213.344C477.971 213.344 478.427 214.016 478.587 214.752L480.539 214.736C480.395 212.944 479.099 211.568 477.059 211.568ZM484.542 220.16C485.694 220.16 486.534 219.8 487.102 218.6L487.294 220H489.246V214.184C489.246 212.616 488.278 211.568 485.75 211.568C483.686 211.568 482.182 212.48 482.094 214.192H484.038C484.27 213.448 484.966 213.152 485.638 213.144C486.51 213.136 487.006 213.544 487.006 214.32V214.816L485.974 214.832C483.046 214.864 481.742 215.824 481.742 217.632C481.742 219.248 482.95 220.16 484.542 220.16ZM485.318 218.624C484.558 218.624 483.958 218.168 483.958 217.4C483.958 216.392 484.998 216.048 486.166 216.032L487.006 216.016V217.24C486.998 217.952 486.166 218.624 485.318 218.624ZM493.929 220.144C494.233 220.144 494.577 220.056 494.897 219.944V218.504L494.505 218.48C493.793 218.4 493.577 218 493.577 217.392V208.112H491.281V217.68C491.281 218.872 491.481 220.144 493.929 220.144ZM498.836 220.144C499.14 220.144 499.484 220.056 499.804 219.944V218.504L499.412 218.48C498.7 218.4 498.484 218 498.484 217.392V208.112H496.188V217.68C496.188 218.872 496.388 220.144 498.836 220.144ZM502.37 222.64C503.658 222.64 504.65 222.16 505.514 220.048L508.866 211.728H506.586L504.578 217.12L502.594 211.728H500.282L503.506 219.656L503.354 220.112C503.258 220.36 503.074 220.992 501.642 220.904L500.818 220.872V222.36C500.818 222.36 501.234 222.64 502.37 222.64ZM441.608 227.432V239H444.992C449.136 239 451.072 236.76 451.072 233.16C451.072 229.704 449.28 227.552 445.072 227.448C444.08 227.424 441.848 227.432 441.608 227.432ZM443.968 229.32H445.072C447.264 229.32 448.624 230.44 448.624 233.144C448.624 236.056 447.024 237.112 445.04 237.112H443.968V229.32ZM452.751 239H455.087V234.472C455.087 233.44 455.735 232.624 457.791 232.792C457.879 232.8 457.887 232.8 457.935 232.816V230.584C457.919 230.576 457.855 230.568 457.783 230.568C456.303 230.568 455.399 231.528 454.999 232.688V230.728H452.751V239ZM461.758 227.44H459.486V229.544H461.758V227.44ZM461.742 230.728H459.51V239H461.742V230.728ZM471.153 230.728H469.025L467.241 236H467.177L465.369 230.728H463.257L466.361 239H468.057L471.153 230.728ZM473.84 235.4H479.376V234.768C479.376 232.288 478.048 230.568 475.536 230.568C473 230.568 471.528 232.472 471.528 234.96C471.528 237.528 473.208 239.16 475.648 239.16C477.376 239.16 479.048 238.16 479.368 236.376H477.264C476.984 237.16 476.4 237.472 475.592 237.472C474.48 237.472 473.832 236.664 473.84 235.4ZM473.832 234.008C473.832 233.096 474.456 232.2 475.528 232.2C476.648 232.2 477.2 233.008 477.2 234.008H473.832ZM481.032 239H483.368V233.648C483.368 232.888 484.136 232.488 484.92 232.488C485.68 232.488 486.288 232.952 486.288 233.768V239H488.632V233.488C488.632 231.76 487.248 230.656 485.736 230.656C484.424 230.656 483.824 231.184 483.336 231.792V230.728H481.032V239Z" fill="#007BB7"/>
<g filter="url(#filter3_d)">
<rect x="199" y="238" width="164" height="149" rx="10" fill="white"/>
</g>
<path opacity="0.3" d="M298.5 290.5H303.5C304.881 290.5 306 291.619 306 293C306 294.381 304.881 295.5 303.5 295.5H298.5C297.119 295.5 296 294.381 296 293C296 291.619 297.119 290.5 298.5 290.5ZM258.5 290.5H263.5C264.881 290.5 266 291.619 266 293C266 294.381 264.881 295.5 263.5 295.5H258.5C257.119 295.5 256 294.381 256 293C256 291.619 257.119 290.5 258.5 290.5ZM281 268C282.381 268 283.5 269.119 283.5 270.5V275.5C283.5 276.881 282.381 278 281 278C279.619 278 278.5 276.881 278.5 275.5V270.5C278.5 269.119 279.619 268 281 268ZM281 308C282.381 308 283.5 309.119 283.5 310.5V315.5C283.5 316.881 282.381 318 281 318C279.619 318 278.5 316.881 278.5 315.5V310.5C278.5 309.119 279.619 308 281 308Z" fill="#FF9393"/>
<path opacity="0.3" d="M281 298C283.761 298 286 295.761 286 293C286 290.239 283.761 288 281 288C278.239 288 276 290.239 276 293C276 295.761 278.239 298 281 298Z" fill="#FF9393"/>
<path d="M281 305.5C287.904 305.5 293.5 299.904 293.5 293C293.5 286.096 287.904 280.5 281 280.5C274.096 280.5 268.5 286.096 268.5 293C268.5 299.904 274.096 305.5 281 305.5ZM281 310.5C271.335 310.5 263.5 302.665 263.5 293C263.5 283.335 271.335 275.5 281 275.5C290.665 275.5 298.5 283.335 298.5 293C298.5 302.665 290.665 310.5 281 310.5Z" fill="#FF9393"/>
<path d="M228.073 359.16C230.921 359.16 232.849 357.72 232.849 355.856C232.849 354.656 232.497 352.856 229.617 352.304L227.601 351.896C226.345 351.624 225.977 351.232 225.977 350.56C225.977 349.72 226.785 349.144 228.057 349.144C229.289 349.144 230.185 349.592 230.353 350.792L232.721 350.752C232.529 348.944 230.785 347.288 228.017 347.288C225.457 347.288 223.457 348.656 223.481 350.832C223.497 352.608 224.625 353.64 226.401 353.968L228.449 354.384C229.585 354.608 230.441 355 230.441 355.872C230.441 356.856 229.361 357.328 228.065 357.328C226.785 357.328 225.793 356.752 225.561 355.696L223.129 355.744C223.385 358.072 225.745 359.16 228.073 359.16ZM236.34 355.4H241.876V354.768C241.876 352.288 240.548 350.568 238.036 350.568C235.5 350.568 234.028 352.472 234.028 354.96C234.028 357.528 235.708 359.16 238.148 359.16C239.876 359.16 241.548 358.16 241.868 356.376H239.764C239.484 357.16 238.9 357.472 238.092 357.472C236.98 357.472 236.332 356.664 236.34 355.4ZM236.332 354.008C236.332 353.096 236.956 352.2 238.028 352.2C239.148 352.2 239.7 353.008 239.7 354.008H236.332ZM246.156 359.144C246.46 359.144 246.804 359.056 247.124 358.944V357.504L246.732 357.48C246.02 357.4 245.804 357 245.804 356.392V347.112H243.508V356.68C243.508 357.872 243.708 359.144 246.156 359.144ZM253.262 350.728H251.478V349.928C251.478 349.256 251.662 348.984 252.254 348.984H253.342L253.334 347.432H251.438C249.998 347.432 249.182 348.2 249.182 349.536V350.728H247.654V352.352H249.182V359H251.518V352.352H253.262V350.728ZM263.042 359.16C265.89 359.16 267.818 357.72 267.818 355.856C267.818 354.656 267.466 352.856 264.586 352.304L262.57 351.896C261.314 351.624 260.946 351.232 260.946 350.56C260.946 349.72 261.754 349.144 263.026 349.144C264.258 349.144 265.154 349.592 265.322 350.792L267.69 350.752C267.498 348.944 265.754 347.288 262.986 347.288C260.426 347.288 258.426 348.656 258.45 350.832C258.466 352.608 259.594 353.64 261.37 353.968L263.418 354.384C264.554 354.608 265.41 355 265.41 355.872C265.41 356.856 264.33 357.328 263.034 357.328C261.754 357.328 260.762 356.752 260.53 355.696L258.098 355.744C258.354 358.072 260.714 359.16 263.042 359.16ZM271.309 355.4H276.845V354.768C276.845 352.288 275.517 350.568 273.005 350.568C270.469 350.568 268.997 352.472 268.997 354.96C268.997 357.528 270.677 359.16 273.117 359.16C274.845 359.16 276.517 358.16 276.837 356.376H274.733C274.453 357.16 273.869 357.472 273.061 357.472C271.949 357.472 271.301 356.664 271.309 355.4ZM271.301 354.008C271.301 353.096 271.925 352.2 272.997 352.2C274.117 352.2 274.669 353.008 274.669 354.008H271.301ZM278.501 359H280.837V354.472C280.837 353.44 281.485 352.624 283.541 352.792C283.629 352.8 283.637 352.8 283.685 352.816V350.584C283.669 350.576 283.605 350.568 283.533 350.568C282.053 350.568 281.149 351.528 280.749 352.688V350.728H278.501V359ZM292.45 350.728H290.322L288.538 356H288.474L286.666 350.728H284.554L287.658 359H289.354L292.45 350.728ZM296.165 347.44H293.893V349.544H296.165V347.44ZM296.149 350.728H293.917V359H296.149V350.728ZM301.895 350.568C299.543 350.568 297.903 352.352 297.903 354.904C297.903 357.432 299.567 359.16 301.895 359.16C303.871 359.16 305.223 357.872 305.343 356.112H303.447C303.327 356.728 302.863 357.504 301.967 357.504C300.839 357.504 300.079 356.504 300.079 354.872C300.079 353.272 300.799 352.344 301.935 352.344C302.807 352.344 303.263 353.016 303.423 353.752L305.375 353.736C305.231 351.944 303.935 350.568 301.895 350.568ZM309.378 359.16C310.53 359.16 311.37 358.8 311.938 357.6L312.13 359H314.082V353.184C314.082 351.616 313.114 350.568 310.586 350.568C308.522 350.568 307.018 351.48 306.93 353.192H308.874C309.106 352.448 309.802 352.152 310.474 352.144C311.346 352.136 311.842 352.544 311.842 353.32V353.816L310.81 353.832C307.882 353.864 306.578 354.824 306.578 356.632C306.578 358.248 307.786 359.16 309.378 359.16ZM310.154 357.624C309.394 357.624 308.794 357.168 308.794 356.4C308.794 355.392 309.834 355.048 311.002 355.032L311.842 355.016V356.24C311.834 356.952 311.002 357.624 310.154 357.624ZM320.709 359.16C322.989 359.16 324.213 357.464 324.213 354.816C324.213 352.296 323.085 350.568 320.941 350.568C319.733 350.568 318.917 351.264 318.477 352.072V347.112H316.141V359H317.821L318.053 357.68C318.405 358.416 319.317 359.16 320.709 359.16ZM320.133 357.48C319.125 357.48 318.493 356.632 318.477 355.208V354.4C318.501 353.312 318.885 352.264 320.149 352.264C321.173 352.264 321.837 352.96 321.837 354.792C321.837 356.736 321.149 357.48 320.133 357.48ZM328.406 359.144C328.71 359.144 329.054 359.056 329.374 358.944V357.504L328.982 357.48C328.27 357.4 328.054 357 328.054 356.392V347.112H325.758V356.68C325.758 357.872 325.958 359.144 328.406 359.144ZM332.559 355.4H338.095V354.768C338.095 352.288 336.767 350.568 334.255 350.568C331.719 350.568 330.247 352.472 330.247 354.96C330.247 357.528 331.927 359.16 334.367 359.16C336.095 359.16 337.767 358.16 338.087 356.376H335.983C335.703 357.16 335.119 357.472 334.311 357.472C333.199 357.472 332.551 356.664 332.559 355.4ZM332.551 354.008C332.551 353.096 333.175 352.2 334.247 352.2C335.367 352.2 335.919 353.008 335.919 354.008H332.551Z" fill="#007BB7"/>
<g filter="url(#filter4_d)">
<rect x="15" y="188" width="164" height="168" rx="10" fill="white"/>
</g>
<path opacity="0.3" d="M114.5 240.5H119.5C120.881 240.5 122 241.619 122 243C122 244.381 120.881 245.5 119.5 245.5H114.5C113.119 245.5 112 244.381 112 243C112 241.619 113.119 240.5 114.5 240.5ZM74.5 240.5H79.5C80.8807 240.5 82 241.619 82 243C82 244.381 80.8807 245.5 79.5 245.5H74.5C73.1193 245.5 72 244.381 72 243C72 241.619 73.1193 240.5 74.5 240.5ZM97 218C98.3807 218 99.5 219.119 99.5 220.5V225.5C99.5 226.881 98.3807 228 97 228C95.6193 228 94.5 226.881 94.5 225.5V220.5C94.5 219.119 95.6193 218 97 218ZM97 258C98.3807 258 99.5 259.119 99.5 260.5V265.5C99.5 266.881 98.3807 268 97 268C95.6193 268 94.5 266.881 94.5 265.5V260.5C94.5 259.119 95.6193 258 97 258Z" fill="#FF9393"/>
<path opacity="0.3" d="M97 248C99.7614 248 102 245.761 102 243C102 240.239 99.7614 238 97 238C94.2386 238 92 240.239 92 243C92 245.761 94.2386 248 97 248Z" fill="#FF9393"/>
<path d="M97 255.5C103.904 255.5 109.5 249.904 109.5 243C109.5 236.096 103.904 230.5 97 230.5C90.0964 230.5 84.5 236.096 84.5 243C84.5 249.904 90.0964 255.5 97 255.5ZM97 260.5C87.335 260.5 79.5 252.665 79.5 243C79.5 233.335 87.335 225.5 97 225.5C106.665 225.5 114.5 233.335 114.5 243C114.5 252.665 106.665 260.5 97 260.5Z" fill="#FF9393"/>
<path d="M65.2093 297.432V309H68.5933C72.7373 309 74.6733 306.76 74.6733 303.16C74.6733 299.704 72.8813 297.552 68.6733 297.448C67.6813 297.424 65.4493 297.432 65.2093 297.432ZM67.5693 299.32H68.6733C70.8653 299.32 72.2253 300.44 72.2253 303.144C72.2253 306.056 70.6253 307.112 68.6413 307.112H67.5693V299.32ZM78.6723 297.44H76.4003V299.544H78.6723V297.44ZM78.6563 300.728H76.4243V309H78.6563V300.728ZM84.6439 311.736C87.5319 311.736 89.0519 310.648 89.0519 309.064C89.0519 307.792 88.1319 306.84 86.0359 306.696C85.3079 306.648 84.6679 306.616 84.3239 306.592C83.3479 306.536 82.8759 306.496 82.8759 306.232C82.8759 306.064 83.0679 305.92 83.6999 305.888C83.8999 305.912 84.3159 305.92 84.5079 305.92C86.9959 305.92 88.2599 304.584 88.2599 303.184C88.2599 302.992 88.1719 302.576 88.0759 302.312L89.4999 302.08L89.5159 300.272C88.8199 300.56 87.5799 301.056 87.0839 301.248C86.4679 300.864 85.8119 300.6 84.6759 300.6C82.4839 300.6 80.7559 301.536 80.7559 303.192C80.7559 304.128 81.2759 305.04 82.4279 305.576C81.2839 305.776 80.7319 306.328 80.7319 306.912C80.7319 307.696 81.4919 307.992 81.7479 308.144C81.5879 308.232 80.1399 308.576 80.1399 309.704C80.1399 310.88 81.6519 311.736 84.6439 311.736ZM84.5799 304.616C83.6599 304.616 83.0999 304.088 83.0999 303.264C83.0999 302.432 83.6679 301.832 84.5799 301.832C85.4599 301.832 86.0519 302.4 86.0519 303.264C86.0519 304.088 85.5159 304.616 84.5799 304.616ZM85.0199 310.432C83.2919 310.432 82.4279 310.152 82.4279 309.432C82.4279 308.92 82.9319 308.448 83.6759 308.488L85.5719 308.616C86.4199 308.672 86.8279 308.992 86.8279 309.504C86.8279 310.104 86.2599 310.432 85.0199 310.432ZM93.2348 297.44H90.9628V299.544H93.2348V297.44ZM93.2188 300.728H90.9868V309H93.2188V300.728ZM100.408 302.352V300.72H98.5683V298.232H96.9043L96.3203 300.728H94.8963V302.352H96.2403V306.856C96.2403 308.184 96.8003 309.088 98.9843 309.088C99.7923 309.088 100.216 308.984 100.432 308.888V307.448H99.3203C98.8083 307.448 98.5763 307.368 98.5763 306.76L98.5683 302.352H100.408ZM104.479 309.16C105.631 309.16 106.471 308.8 107.039 307.6L107.231 309H109.183V303.184C109.183 301.616 108.215 300.568 105.687 300.568C103.623 300.568 102.119 301.48 102.031 303.192H103.975C104.207 302.448 104.903 302.152 105.575 302.144C106.447 302.136 106.943 302.544 106.943 303.32V303.816L105.911 303.832C102.983 303.864 101.679 304.824 101.679 306.632C101.679 308.248 102.887 309.16 104.479 309.16ZM105.255 307.624C104.495 307.624 103.895 307.168 103.895 306.4C103.895 305.392 104.935 305.048 106.103 305.032L106.943 305.016V306.24C106.935 306.952 106.103 307.624 105.255 307.624ZM113.867 309.144C114.171 309.144 114.515 309.056 114.835 308.944V307.504L114.443 307.48C113.731 307.4 113.515 307 113.515 306.392V297.112H111.219V306.68C111.219 307.872 111.419 309.144 113.867 309.144ZM118.773 309.144C119.077 309.144 119.421 309.056 119.741 308.944V307.504L119.349 307.48C118.637 307.4 118.421 307 118.421 306.392V297.112H116.125V306.68C116.125 307.872 116.325 309.144 118.773 309.144ZM122.308 311.64C123.596 311.64 124.588 311.16 125.452 309.048L128.804 300.728H126.524L124.516 306.12L122.532 300.728H120.22L123.444 308.656L123.292 309.112C123.196 309.36 123.012 309.992 121.58 309.904L120.756 309.872V311.36C120.756 311.36 121.172 311.64 122.308 311.64ZM65.1859 328H67.5459V323.872H69.7539C72.2419 323.872 73.8739 322.528 73.8739 320.224C73.8739 317.776 71.9699 316.432 69.4499 316.432H65.1859V328ZM67.5219 322.064V318.224H69.6499C70.7859 318.224 71.6819 318.952 71.6819 320.104C71.6819 321.216 70.8499 322.064 69.6899 322.064H67.5219ZM78.2471 328.16C80.7271 328.16 82.2471 326.392 82.2471 323.912C82.2471 321.392 80.7511 319.568 78.2631 319.568C75.8551 319.568 74.2471 321.328 74.2471 323.92C74.2471 326.408 75.7671 328.16 78.2471 328.16ZM78.2631 326.424C76.9671 326.424 76.5351 325.12 76.5351 323.832C76.5351 322.528 76.9671 321.288 78.2631 321.288C79.5351 321.288 79.9671 322.52 79.9671 323.832C79.9671 325.128 79.5511 326.424 78.2631 326.424ZM94.911 319.728H92.799L91.263 324.856H91.207L89.663 319.728H87.999L86.471 324.856H86.407L84.831 319.728H82.759L85.447 328H87.247L88.791 322.992L90.335 328H92.191L94.911 319.728ZM97.5904 324.4H103.126V323.768C103.126 321.288 101.798 319.568 99.2864 319.568C96.7504 319.568 95.2784 321.472 95.2784 323.96C95.2784 326.528 96.9584 328.16 99.3984 328.16C101.126 328.16 102.798 327.16 103.118 325.376H101.014C100.734 326.16 100.15 326.472 99.3424 326.472C98.2304 326.472 97.5824 325.664 97.5904 324.4ZM97.5824 323.008C97.5824 322.096 98.2064 321.2 99.2784 321.2C100.398 321.2 100.95 322.008 100.95 323.008H97.5824ZM104.782 328H107.118V323.472C107.118 322.44 107.766 321.624 109.822 321.792C109.91 321.8 109.918 321.8 109.966 321.816V319.584C109.95 319.576 109.886 319.568 109.814 319.568C108.334 319.568 107.43 320.528 107.03 321.688V319.728H104.782V328ZM113.2 324.4H118.736V323.768C118.736 321.288 117.408 319.568 114.896 319.568C112.36 319.568 110.888 321.472 110.888 323.96C110.888 326.528 112.568 328.16 115.008 328.16C116.736 328.16 118.408 327.16 118.728 325.376H116.624C116.344 326.16 115.76 326.472 114.952 326.472C113.84 326.472 113.192 325.664 113.2 324.4ZM113.192 323.008C113.192 322.096 113.816 321.2 114.888 321.2C116.008 321.2 116.56 322.008 116.56 323.008H113.192ZM123.463 328.16C125.079 328.16 125.791 327.216 126.079 326.304L126.351 328H128.047V316.112H125.703V320.824C125.303 320.128 124.399 319.568 123.231 319.568C121.087 319.568 119.959 321.296 119.959 323.816C119.959 326.464 121.183 328.16 123.463 328.16ZM123.983 326.48C122.975 326.48 122.239 325.736 122.239 323.792C122.239 321.96 122.951 321.264 123.975 321.264C125.175 321.264 125.687 322.192 125.703 323.184V324.48C125.695 325.696 124.991 326.48 123.983 326.48Z" fill="#007BB7"/>
<defs>
<filter id="filter0_d" x="0" y="0" width="194" height="179" filterUnits="userSpaceOnUse" color-interpolation-filters="sRGB">
<feFlood flood-opacity="0" result="BackgroundImageFix"/>
<feColorMatrix in="SourceAlpha" type="matrix" values="0 0 0 0 0 0 0 0 0 0 0 0 0 0 0 0 0 0 127 0"/>
<feOffset dy="6"/>
<feGaussianBlur stdDeviation="7.5"/>
<feColorMatrix type="matrix" values="0 0 0 0 0.47451 0 0 0 0 0.729412 0 0 0 0 0.85098 0 0 0 0.15 0"/>
<feBlend mode="normal" in2="BackgroundImageFix" result="effect1_dropShadow"/>
<feBlend mode="normal" in="SourceGraphic" in2="effect1_dropShadow" result="shape"/>
</filter>
<filter id="filter1_d" x="184" y="50" width="194" height="179" filterUnits="userSpaceOnUse" color-interpolation-filters="sRGB">
<feFlood flood-opacity="0" result="BackgroundImageFix"/>
<feColorMatrix in="SourceAlpha" type="matrix" values="0 0 0 0 0 0 0 0 0 0 0 0 0 0 0 0 0 0 127 0"/>
<feOffset dy="6"/>
<feGaussianBlur stdDeviation="7.5"/>
<feColorMatrix type="matrix" values="0 0 0 0 0.47451 0 0 0 0 0.729412 0 0 0 0 0.85098 0 0 0 0.15 0"/>
<feBlend mode="normal" in2="BackgroundImageFix" result="effect1_dropShadow"/>
<feBlend mode="normal" in="SourceGraphic" in2="effect1_dropShadow" result="shape"/>
</filter>
<filter id="filter2_d" x="368" y="90" width="194" height="198" filterUnits="userSpaceOnUse" color-interpolation-filters="sRGB">
<feFlood flood-opacity="0" result="BackgroundImageFix"/>
<feColorMatrix in="SourceAlpha" type="matrix" values="0 0 0 0 0 0 0 0 0 0 0 0 0 0 0 0 0 0 127 0"/>
<feOffset dy="6"/>
<feGaussianBlur stdDeviation="7.5"/>
<feColorMatrix type="matrix" values="0 0 0 0 0.47451 0 0 0 0 0.729412 0 0 0 0 0.85098 0 0 0 0.15 0"/>
<feBlend mode="normal" in2="BackgroundImageFix" result="effect1_dropShadow"/>
<feBlend mode="normal" in="SourceGraphic" in2="effect1_dropShadow" result="shape"/>
</filter>
<filter id="filter3_d" x="184" y="229" width="194" height="179" filterUnits="userSpaceOnUse" color-interpolation-filters="sRGB">
<feFlood flood-opacity="0" result="BackgroundImageFix"/>
<feColorMatrix in="SourceAlpha" type="matrix" values="0 0 0 0 0 0 0 0 0 0 0 0 0 0 0 0 0 0 127 0"/>
<feOffset dy="6"/>
<feGaussianBlur stdDeviation="7.5"/>
<feColorMatrix type="matrix" values="0 0 0 0 0.47451 0 0 0 0 0.729412 0 0 0 0 0.85098 0 0 0 0.15 0"/>
<feBlend mode="normal" in2="BackgroundImageFix" result="effect1_dropShadow"/>
<feBlend mode="normal" in="SourceGraphic" in2="effect1_dropShadow" result="shape"/>
</filter>
<filter id="filter4_d" x="0" y="179" width="194" height="198" filterUnits="userSpaceOnUse" color-interpolation-filters="sRGB">
<feFlood flood-opacity="0" result="BackgroundImageFix"/>
<feColorMatrix in="SourceAlpha" type="matrix" values="0 0 0 0 0 0 0 0 0 0 0 0 0 0 0 0 0 0 127 0"/>
<feOffset dy="6"/>
<feGaussianBlur stdDeviation="7.5"/>
<feColorMatrix type="matrix" values="0 0 0 0 0.47451 0 0 0 0 0.729412 0 0 0 0 0.85098 0 0 0 0.15 0"/>
<feBlend mode="normal" in2="BackgroundImageFix" result="effect1_dropShadow"/>
<feBlend mode="normal" in="SourceGraphic" in2="effect1_dropShadow" result="shape"/>
</filter>
</defs>
</svg>
