<svg width="35" height="35" viewBox="0 0 35 35" fill="none" xmlns="http://www.w3.org/2000/svg">
<path d="M17.5 29.167C11.0688 29.167 5.83334 23.9316 5.83334 17.5003C5.83334 11.0691 11.0688 5.83366 17.5 5.83366C23.9313 5.83366 29.1667 11.0691 29.1667 17.5003C29.1667 23.9316 23.9313 29.167 17.5 29.167ZM17.5 2.91699C15.5849 2.91699 13.6885 3.2942 11.9192 4.02708C10.1499 4.75996 8.54222 5.83416 7.18803 7.18835C4.45313 9.92326 2.91667 13.6326 2.91667 17.5003C2.91667 21.3681 4.45313 25.0774 7.18803 27.8123C8.54222 29.1665 10.1499 30.2407 11.9192 30.9736C13.6885 31.7065 15.5849 32.0837 17.5 32.0837C21.3677 32.0837 25.0771 30.5472 27.812 27.8123C30.5469 25.0774 32.0833 21.3681 32.0833 17.5003C32.0833 15.5852 31.7061 13.6889 30.9733 11.9195C30.2404 10.1502 29.1662 8.54254 27.812 7.18835C26.4578 5.83416 24.8501 4.75996 23.0808 4.02708C21.3115 3.2942 19.4151 2.91699 17.5 2.91699ZM14.5833 24.0628L23.3333 17.5003L14.5833 10.9378V24.0628Z" fill="white"/>
</svg>
