<svg width="358" height="20" viewBox="0 0 358 20" fill="none" xmlns="http://www.w3.org/2000/svg">
<g opacity="0.4">
<path d="M12.1665 13.8333L15.9998 10L12.1665 6.16667L13.3332 5L18.3332 10L13.3332 15L12.1665 13.8333ZM7.83317 13.8333L3.99984 10L7.83317 6.16667L6.6665 5L1.6665 10L6.6665 15L7.83317 13.8333Z" fill="black"/>
</g>
<path d="M56.2502 12.9167H53.3335V10.4167H56.2502C56.5817 10.4167 56.8996 10.5484 57.134 10.7828C57.3685 11.0172 57.5002 11.3352 57.5002 11.6667C57.5002 11.9982 57.3685 12.3162 57.134 12.5506C56.8996 12.785 56.5817 12.9167 56.2502 12.9167ZM53.3335 5.41671H55.8335C56.165 5.41671 56.483 5.5484 56.7174 5.78282C56.9518 6.01724 57.0835 6.33519 57.0835 6.66671C57.0835 6.99823 56.9518 7.31617 56.7174 7.55059C56.483 7.78501 56.165 7.91671 55.8335 7.91671H53.3335V5.41671ZM58.0002 8.9917C58.8085 8.42504 59.3752 7.50004 59.3752 6.66671C59.3752 4.78337 57.9168 3.33337 56.0418 3.33337H50.8335V15H56.7002C58.4502 15 59.7918 13.5834 59.7918 11.8417C59.7918 10.575 59.0752 9.4917 58.0002 8.9917Z" fill="#007BB7"/>
<g opacity="0.4">
<path d="M78.1665 17.5H89.8332V15.8333H78.1665V17.5ZM83.9998 14.1667C85.3259 14.1667 86.5977 13.6399 87.5354 12.7022C88.4731 11.7645 88.9998 10.4927 88.9998 9.16667V2.5H86.9165V9.16667C86.9165 9.94021 86.6092 10.6821 86.0622 11.2291C85.5153 11.776 84.7734 12.0833 83.9998 12.0833C83.2263 12.0833 82.4844 11.776 81.9374 11.2291C81.3905 10.6821 81.0832 9.94021 81.0832 9.16667V2.5H78.9998V9.16667C78.9998 10.4927 79.5266 11.7645 80.4643 12.7022C81.402 13.6399 82.6738 14.1667 83.9998 14.1667Z" fill="black"/>
</g>
<g opacity="0.4">
<path d="M111.333 3.33337V5.83337H113.175L110.325 12.5H108V15H114.667V12.5H112.825L115.675 5.83337H118V3.33337H111.333Z" fill="black"/>
</g>
<g opacity="0.4">
<path d="M134.5 11.6667H149.5V10H134.5V11.6667ZM136.167 3.33337V5.83337H140.333V8.33337H143.667V5.83337H147.833V3.33337H136.167ZM140.333 15.8334H143.667V13.3334H140.333V15.8334Z" fill="black"/>
</g>
<g opacity="0.4">
<path d="M179.5 2.5H194.5V4.16667H179.5V2.5ZM179.5 5.83333H189.5V7.5H179.5V5.83333ZM179.5 9.16667H194.5V10.8333H179.5V9.16667ZM179.5 12.5H189.5V14.1667H179.5V12.5ZM179.5 15.8333H194.5V17.5H179.5V15.8333Z" fill="black"/>
</g>
<g opacity="0.4">
<path d="M216.167 10.8333H224.5V9.16667H216.167V10.8333ZM216.167 7.5H224.5V5.83333H216.167V7.5ZM209.5 2.5V4.16667H224.5V2.5H209.5ZM209.5 17.5H224.5V15.8333H209.5V17.5ZM209.5 10L212.833 13.3333V6.66667L209.5 10ZM216.167 14.1667H224.5V12.5H216.167V14.1667Z" fill="black"/>
</g>
<g opacity="0.4">
<path d="M246.167 10.8333H254.5V9.16667H246.167V10.8333ZM246.167 7.5H254.5V5.83333H246.167V7.5ZM239.5 2.5V4.16667H254.5V2.5H239.5ZM246.167 14.1667H254.5V12.5H246.167V14.1667ZM239.5 6.66667V13.3333L242.833 10L239.5 6.66667ZM239.5 17.5H254.5V15.8333H239.5V17.5Z" fill="black"/>
</g>
<g opacity="0.4">
<path d="M287.833 4.16667H299.5V5.83333H287.833V4.16667ZM287.833 10.8333V9.16667H299.5V10.8333H287.833ZM285.333 3.75C285.665 3.75 285.983 3.8817 286.217 4.11612C286.452 4.35054 286.583 4.66848 286.583 5C286.583 5.33152 286.452 5.64946 286.217 5.88388C285.983 6.1183 285.665 6.25 285.333 6.25C285.002 6.25 284.684 6.1183 284.45 5.88388C284.215 5.64946 284.083 5.33152 284.083 5C284.083 4.66848 284.215 4.35054 284.45 4.11612C284.684 3.8817 285.002 3.75 285.333 3.75ZM285.333 8.75C285.665 8.75 285.983 8.8817 286.217 9.11612C286.452 9.35054 286.583 9.66848 286.583 10C286.583 10.3315 286.452 10.6495 286.217 10.8839C285.983 11.1183 285.665 11.25 285.333 11.25C285.002 11.25 284.684 11.1183 284.45 10.8839C284.215 10.6495 284.083 10.3315 284.083 10C284.083 9.66848 284.215 9.35054 284.45 9.11612C284.684 8.8817 285.002 8.75 285.333 8.75ZM287.833 15.8333V14.1667H299.5V15.8333H287.833ZM285.333 13.75C285.665 13.75 285.983 13.8817 286.217 14.1161C286.452 14.3505 286.583 14.6685 286.583 15C286.583 15.3315 286.452 15.6495 286.217 15.8839C285.983 16.1183 285.665 16.25 285.333 16.25C285.002 16.25 284.684 16.1183 284.45 15.8839C284.215 15.6495 284.083 15.3315 284.083 15C284.083 14.6685 284.215 14.3505 284.45 14.1161C284.684 13.8817 285.002 13.75 285.333 13.75Z" fill="black"/>
</g>
<g opacity="0.4">
<path d="M325.833 15.8333H314.167V4.16667H325.833V15.8333ZM325.833 2.5H314.167C313.725 2.5 313.301 2.67559 312.988 2.98816C312.676 3.30072 312.5 3.72464 312.5 4.16667V15.8333C312.5 16.2754 312.676 16.6993 312.988 17.0118C313.301 17.3244 313.725 17.5 314.167 17.5H325.833C326.275 17.5 326.699 17.3244 327.012 17.0118C327.324 16.6993 327.5 16.2754 327.5 15.8333V4.16667C327.5 3.72464 327.324 3.30072 327.012 2.98816C326.699 2.67559 326.275 2.5 325.833 2.5ZM321.633 10.2417L319.342 13.1917L317.708 11.225L315.417 14.1667H324.583L321.633 10.2417Z" fill="black"/>
</g>
<g opacity="0.4">
<path d="M341.25 10C341.25 8.57504 342.408 7.41671 343.833 7.41671H347.167V5.83337H343.833C342.728 5.83337 341.668 6.27236 340.887 7.05376C340.105 7.83516 339.667 8.89497 339.667 10C339.667 11.1051 340.105 12.1649 340.887 12.9463C341.668 13.7277 342.728 14.1667 343.833 14.1667H347.167V12.5834H343.833C342.408 12.5834 341.25 11.425 341.25 10ZM344.667 10.8334H351.333V9.16671H344.667V10.8334ZM352.167 5.83337H348.833V7.41671H352.167C353.592 7.41671 354.75 8.57504 354.75 10C354.75 11.425 353.592 12.5834 352.167 12.5834H348.833V14.1667H352.167C353.272 14.1667 354.331 13.7277 355.113 12.9463C355.894 12.1649 356.333 11.1051 356.333 10C356.333 8.89497 355.894 7.83516 355.113 7.05376C354.331 6.27236 353.272 5.83337 352.167 5.83337Z" fill="black"/>
</g>
</svg>
